<svg width="856" height="540" viewBox="0 0 856 540" fill="none" xmlns="http://www.w3.org/2000/svg">
<g clip-path="url(#clip0_21_4)">
<path d="M95.9375 10.0938C103.618 10.0938 109.844 3.86771 109.844 -3.8125C109.844 -11.4927 103.618 -17.7188 95.9375 -17.7188C88.2573 -17.7188 82.0312 -11.4927 82.0312 -3.8125C82.0312 3.86771 88.2573 10.0938 95.9375 10.0938Z" fill="white"/>
<path d="M262.812 10.0938C270.493 10.0938 276.719 3.86771 276.719 -3.8125C276.719 -11.4927 270.493 -17.7188 262.812 -17.7188C255.132 -17.7188 248.906 -11.4927 248.906 -3.8125C248.906 3.86771 255.132 10.0938 262.812 10.0938Z" fill="white"/>
<path d="M290.625 10.0938C298.305 10.0938 304.531 3.86771 304.531 -3.8125C304.531 -11.4927 298.305 -17.7188 290.625 -17.7188C282.945 -17.7188 276.719 -11.4927 276.719 -3.8125C276.719 3.86771 282.945 10.0938 290.625 10.0938Z" fill="white"/>
<path d="M318.438 10.0938C326.118 10.0938 332.344 3.86771 332.344 -3.8125C332.344 -11.4927 326.118 -17.7188 318.438 -17.7188C310.757 -17.7188 304.531 -11.4927 304.531 -3.8125C304.531 3.86771 310.757 10.0938 318.438 10.0938Z" fill="white"/>
<path d="M346.25 10.0938C353.93 10.0938 360.156 3.86771 360.156 -3.8125C360.156 -11.4927 353.93 -17.7188 346.25 -17.7188C338.57 -17.7188 332.344 -11.4927 332.344 -3.8125C332.344 3.86771 338.57 10.0938 346.25 10.0938Z" fill="white"/>
<path d="M374.062 10.0938C381.743 10.0938 387.969 3.86771 387.969 -3.8125C387.969 -11.4927 381.743 -17.7188 374.062 -17.7188C366.382 -17.7188 360.156 -11.4927 360.156 -3.8125C360.156 3.86771 366.382 10.0938 374.062 10.0938Z" fill="white"/>
<path d="M401.875 10.0938C409.555 10.0938 415.781 3.86771 415.781 -3.8125C415.781 -11.4927 409.555 -17.7188 401.875 -17.7188C394.195 -17.7188 387.969 -11.4927 387.969 -3.8125C387.969 3.86771 394.195 10.0938 401.875 10.0938Z" fill="white"/>
<path d="M429.688 10.0938C437.368 10.0938 443.594 3.86771 443.594 -3.8125C443.594 -11.4927 437.368 -17.7188 429.688 -17.7188C422.007 -17.7188 415.781 -11.4927 415.781 -3.8125C415.781 3.86771 422.007 10.0938 429.688 10.0938Z" fill="white"/>
<path d="M457.5 10.0938C465.18 10.0938 471.406 3.86771 471.406 -3.8125C471.406 -11.4927 465.18 -17.7188 457.5 -17.7188C449.82 -17.7188 443.594 -11.4927 443.594 -3.8125C443.594 3.86771 449.82 10.0938 457.5 10.0938Z" fill="white"/>
<path d="M485.312 10.0938C492.993 10.0938 499.219 3.86771 499.219 -3.8125C499.219 -11.4927 492.993 -17.7188 485.312 -17.7188C477.632 -17.7188 471.406 -11.4927 471.406 -3.8125C471.406 3.86771 477.632 10.0938 485.312 10.0938Z" fill="white"/>
<path d="M513.125 10.0938C520.805 10.0938 527.031 3.86771 527.031 -3.8125C527.031 -11.4927 520.805 -17.7188 513.125 -17.7188C505.445 -17.7188 499.219 -11.4927 499.219 -3.8125C499.219 3.86771 505.445 10.0938 513.125 10.0938Z" fill="white"/>
<path d="M540.938 10.0938C548.618 10.0938 554.844 3.86771 554.844 -3.8125C554.844 -11.4927 548.618 -17.7188 540.938 -17.7188C533.257 -17.7188 527.031 -11.4927 527.031 -3.8125C527.031 3.86771 533.257 10.0938 540.938 10.0938Z" fill="white"/>
<path d="M568.75 10.0938C576.43 10.0938 582.656 3.86771 582.656 -3.8125C582.656 -11.4927 576.43 -17.7188 568.75 -17.7188C561.07 -17.7188 554.844 -11.4927 554.844 -3.8125C554.844 3.86771 561.07 10.0938 568.75 10.0938Z" fill="white"/>
<path d="M707.812 10.0938C715.493 10.0938 721.719 3.86771 721.719 -3.8125C721.719 -11.4927 715.493 -17.7188 707.812 -17.7188C700.132 -17.7188 693.906 -11.4927 693.906 -3.8125C693.906 3.86771 700.132 10.0938 707.812 10.0938Z" fill="white"/>
<path d="M735.625 10.0938C743.305 10.0938 749.531 3.86771 749.531 -3.8125C749.531 -11.4927 743.305 -17.7188 735.625 -17.7188C727.945 -17.7188 721.719 -11.4927 721.719 -3.8125C721.719 3.86771 727.945 10.0938 735.625 10.0938Z" fill="white"/>
<path d="M763.438 10.0938C771.118 10.0938 777.344 3.86771 777.344 -3.8125C777.344 -11.4927 771.118 -17.7188 763.438 -17.7188C755.757 -17.7188 749.531 -11.4927 749.531 -3.8125C749.531 3.86771 755.757 10.0938 763.438 10.0938Z" fill="white"/>
<path d="M791.25 10.0938C798.93 10.0938 805.156 3.86771 805.156 -3.8125C805.156 -11.4927 798.93 -17.7188 791.25 -17.7188C783.57 -17.7188 777.344 -11.4927 777.344 -3.8125C777.344 3.86771 783.57 10.0938 791.25 10.0938Z" fill="white"/>
<path d="M68.125 37.9062C75.8052 37.9062 82.0312 31.6802 82.0312 24C82.0312 16.3198 75.8052 10.0938 68.125 10.0938C60.4448 10.0938 54.2188 16.3198 54.2188 24C54.2188 31.6802 60.4448 37.9062 68.125 37.9062Z" fill="white"/>
<path d="M290.625 37.9062C298.305 37.9062 304.531 31.6802 304.531 24C304.531 16.3198 298.305 10.0938 290.625 10.0938C282.945 10.0938 276.719 16.3198 276.719 24C276.719 31.6802 282.945 37.9062 290.625 37.9062Z" fill="white"/>
<path d="M318.438 37.9062C326.118 37.9062 332.344 31.6802 332.344 24C332.344 16.3198 326.118 10.0938 318.438 10.0938C310.757 10.0938 304.531 16.3198 304.531 24C304.531 31.6802 310.757 37.9062 318.438 37.9062Z" fill="white"/>
<path d="M346.25 37.9062C353.93 37.9062 360.156 31.6802 360.156 24C360.156 16.3198 353.93 10.0938 346.25 10.0938C338.57 10.0938 332.344 16.3198 332.344 24C332.344 31.6802 338.57 37.9062 346.25 37.9062Z" fill="white"/>
<path d="M374.062 37.9062C381.743 37.9062 387.969 31.6802 387.969 24C387.969 16.3198 381.743 10.0938 374.062 10.0938C366.382 10.0938 360.156 16.3198 360.156 24C360.156 31.6802 366.382 37.9062 374.062 37.9062Z" fill="white"/>
<path d="M401.875 37.9062C409.555 37.9062 415.781 31.6802 415.781 24C415.781 16.3198 409.555 10.0938 401.875 10.0938C394.195 10.0938 387.969 16.3198 387.969 24C387.969 31.6802 394.195 37.9062 401.875 37.9062Z" fill="white"/>
<path d="M429.688 37.9062C437.368 37.9062 443.594 31.6802 443.594 24C443.594 16.3198 437.368 10.0938 429.688 10.0938C422.007 10.0938 415.781 16.3198 415.781 24C415.781 31.6802 422.007 37.9062 429.688 37.9062Z" fill="white"/>
<path d="M457.5 37.9062C465.18 37.9062 471.406 31.6802 471.406 24C471.406 16.3198 465.18 10.0938 457.5 10.0938C449.82 10.0938 443.594 16.3198 443.594 24C443.594 31.6802 449.82 37.9062 457.5 37.9062Z" fill="white"/>
<path d="M485.312 37.9062C492.993 37.9062 499.219 31.6802 499.219 24C499.219 16.3198 492.993 10.0938 485.312 10.0938C477.632 10.0938 471.406 16.3198 471.406 24C471.406 31.6802 477.632 37.9062 485.312 37.9062Z" fill="white"/>
<path d="M513.125 37.9062C520.805 37.9062 527.031 31.6802 527.031 24C527.031 16.3198 520.805 10.0938 513.125 10.0938C505.445 10.0938 499.219 16.3198 499.219 24C499.219 31.6802 505.445 37.9062 513.125 37.9062Z" fill="white"/>
<path d="M540.938 37.9062C548.618 37.9062 554.844 31.6802 554.844 24C554.844 16.3198 548.618 10.0938 540.938 10.0938C533.257 10.0938 527.031 16.3198 527.031 24C527.031 31.6802 533.257 37.9062 540.938 37.9062Z" fill="white"/>
<path d="M568.75 37.9062C576.43 37.9062 582.656 31.6802 582.656 24C582.656 16.3198 576.43 10.0938 568.75 10.0938C561.07 10.0938 554.844 16.3198 554.844 24C554.844 31.6802 561.07 37.9062 568.75 37.9062Z" fill="white"/>
<path d="M596.562 37.9062C604.243 37.9062 610.469 31.6802 610.469 24C610.469 16.3198 604.243 10.0938 596.562 10.0938C588.882 10.0938 582.656 16.3198 582.656 24C582.656 31.6802 588.882 37.9062 596.562 37.9062Z" fill="white"/>
<path d="M707.812 37.9062C715.493 37.9062 721.719 31.6802 721.719 24C721.719 16.3198 715.493 10.0938 707.812 10.0938C700.132 10.0938 693.906 16.3198 693.906 24C693.906 31.6802 700.132 37.9062 707.812 37.9062Z" fill="white"/>
<path d="M735.625 37.9062C743.305 37.9062 749.531 31.6802 749.531 24C749.531 16.3198 743.305 10.0938 735.625 10.0938C727.945 10.0938 721.719 16.3198 721.719 24C721.719 31.6802 727.945 37.9062 735.625 37.9062Z" fill="white"/>
<path d="M763.438 37.9062C771.118 37.9062 777.344 31.6802 777.344 24C777.344 16.3198 771.118 10.0938 763.438 10.0938C755.757 10.0938 749.531 16.3198 749.531 24C749.531 31.6802 755.757 37.9062 763.438 37.9062Z" fill="white"/>
<path d="M791.25 37.9062C798.93 37.9062 805.156 31.6802 805.156 24C805.156 16.3198 798.93 10.0938 791.25 10.0938C783.57 10.0938 777.344 16.3198 777.344 24C777.344 31.6802 783.57 37.9062 791.25 37.9062Z" fill="white"/>
<path d="M318.438 65.7188C326.118 65.7188 332.344 59.4927 332.344 51.8125C332.344 44.1323 326.118 37.9062 318.438 37.9062C310.757 37.9062 304.531 44.1323 304.531 51.8125C304.531 59.4927 310.757 65.7188 318.438 65.7188Z" fill="white"/>
<path d="M346.25 65.7188C353.93 65.7188 360.156 59.4927 360.156 51.8125C360.156 44.1323 353.93 37.9062 346.25 37.9062C338.57 37.9062 332.344 44.1323 332.344 51.8125C332.344 59.4927 338.57 65.7188 346.25 65.7188Z" fill="white"/>
<path d="M374.062 65.7188C381.743 65.7188 387.969 59.4927 387.969 51.8125C387.969 44.1323 381.743 37.9062 374.062 37.9062C366.382 37.9062 360.156 44.1323 360.156 51.8125C360.156 59.4927 366.382 65.7188 374.062 65.7188Z" fill="white"/>
<path d="M401.875 65.7188C409.555 65.7188 415.781 59.4927 415.781 51.8125C415.781 44.1323 409.555 37.9062 401.875 37.9062C394.195 37.9062 387.969 44.1323 387.969 51.8125C387.969 59.4927 394.195 65.7188 401.875 65.7188Z" fill="white"/>
<path d="M429.688 65.7188C437.368 65.7188 443.594 59.4927 443.594 51.8125C443.594 44.1323 437.368 37.9062 429.688 37.9062C422.007 37.9062 415.781 44.1323 415.781 51.8125C415.781 59.4927 422.007 65.7188 429.688 65.7188Z" fill="white"/>
<path d="M457.5 65.7188C465.18 65.7188 471.406 59.4927 471.406 51.8125C471.406 44.1323 465.18 37.9062 457.5 37.9062C449.82 37.9062 443.594 44.1323 443.594 51.8125C443.594 59.4927 449.82 65.7188 457.5 65.7188Z" fill="white"/>
<path d="M485.312 65.7188C492.993 65.7188 499.219 59.4927 499.219 51.8125C499.219 44.1323 492.993 37.9062 485.312 37.9062C477.632 37.9062 471.406 44.1323 471.406 51.8125C471.406 59.4927 477.632 65.7188 485.312 65.7188Z" fill="white"/>
<path d="M513.125 65.7188C520.805 65.7188 527.031 59.4927 527.031 51.8125C527.031 44.1323 520.805 37.9062 513.125 37.9062C505.445 37.9062 499.219 44.1323 499.219 51.8125C499.219 59.4927 505.445 65.7188 513.125 65.7188Z" fill="white"/>
<path d="M540.938 65.7188C548.618 65.7188 554.844 59.4927 554.844 51.8125C554.844 44.1323 548.618 37.9062 540.938 37.9062C533.257 37.9062 527.031 44.1323 527.031 51.8125C527.031 59.4927 533.257 65.7188 540.938 65.7188Z" fill="white"/>
<path d="M568.75 65.7188C576.43 65.7188 582.656 59.4927 582.656 51.8125C582.656 44.1323 576.43 37.9062 568.75 37.9062C561.07 37.9062 554.844 44.1323 554.844 51.8125C554.844 59.4927 561.07 65.7188 568.75 65.7188Z" fill="white"/>
<path d="M596.562 65.7188C604.243 65.7188 610.469 59.4927 610.469 51.8125C610.469 44.1323 604.243 37.9062 596.562 37.9062C588.882 37.9062 582.656 44.1323 582.656 51.8125C582.656 59.4927 588.882 65.7188 596.562 65.7188Z" fill="white"/>
<path d="M624.375 65.7188C632.055 65.7188 638.281 59.4927 638.281 51.8125C638.281 44.1323 632.055 37.9062 624.375 37.9062C616.695 37.9062 610.469 44.1323 610.469 51.8125C610.469 59.4927 616.695 65.7188 624.375 65.7188Z" fill="white"/>
<path d="M652.188 65.7188C659.868 65.7188 666.094 59.4927 666.094 51.8125C666.094 44.1323 659.868 37.9062 652.188 37.9062C644.507 37.9062 638.281 44.1323 638.281 51.8125C638.281 59.4927 644.507 65.7188 652.188 65.7188Z" fill="white"/>
<path d="M680 65.7188C687.68 65.7188 693.906 59.4927 693.906 51.8125C693.906 44.1323 687.68 37.9062 680 37.9062C672.32 37.9062 666.094 44.1323 666.094 51.8125C666.094 59.4927 672.32 65.7188 680 65.7188Z" fill="white"/>
<path d="M707.812 65.7188C715.493 65.7188 721.719 59.4927 721.719 51.8125C721.719 44.1323 715.493 37.9062 707.812 37.9062C700.132 37.9062 693.906 44.1323 693.906 51.8125C693.906 59.4927 700.132 65.7188 707.812 65.7188Z" fill="white"/>
<path d="M735.625 65.7188C743.305 65.7188 749.531 59.4927 749.531 51.8125C749.531 44.1323 743.305 37.9062 735.625 37.9062C727.945 37.9062 721.719 44.1323 721.719 51.8125C721.719 59.4927 727.945 65.7188 735.625 65.7188Z" fill="white"/>
<path d="M763.438 65.7188C771.118 65.7188 777.344 59.4927 777.344 51.8125C777.344 44.1323 771.118 37.9062 763.438 37.9062C755.757 37.9062 749.531 44.1323 749.531 51.8125C749.531 59.4927 755.757 65.7188 763.438 65.7188Z" fill="white"/>
<path d="M791.25 65.7188C798.93 65.7188 805.156 59.4927 805.156 51.8125C805.156 44.1323 798.93 37.9062 791.25 37.9062C783.57 37.9062 777.344 44.1323 777.344 51.8125C777.344 59.4927 783.57 65.7188 791.25 65.7188Z" fill="white"/>
<path d="M819.062 65.7188C826.743 65.7188 832.969 59.4927 832.969 51.8125C832.969 44.1323 826.743 37.9062 819.062 37.9062C811.382 37.9062 805.156 44.1323 805.156 51.8125C805.156 59.4927 811.382 65.7188 819.062 65.7188Z" fill="white"/>
<path d="M846.875 65.7188C854.555 65.7188 860.781 59.4927 860.781 51.8125C860.781 44.1323 854.555 37.9062 846.875 37.9062C839.195 37.9062 832.969 44.1323 832.969 51.8125C832.969 59.4927 839.195 65.7188 846.875 65.7188Z" fill="white"/>
<path d="M346.25 93.5312C353.93 93.5312 360.156 87.3052 360.156 79.625C360.156 71.9448 353.93 65.7188 346.25 65.7188C338.57 65.7188 332.344 71.9448 332.344 79.625C332.344 87.3052 338.57 93.5312 346.25 93.5312Z" fill="white"/>
<path d="M374.062 93.5312C381.743 93.5312 387.969 87.3052 387.969 79.625C387.969 71.9448 381.743 65.7188 374.062 65.7188C366.382 65.7188 360.156 71.9448 360.156 79.625C360.156 87.3052 366.382 93.5312 374.062 93.5312Z" fill="white"/>
<path d="M401.875 93.5312C409.555 93.5312 415.781 87.3052 415.781 79.625C415.781 71.9448 409.555 65.7188 401.875 65.7188C394.195 65.7188 387.969 71.9448 387.969 79.625C387.969 87.3052 394.195 93.5312 401.875 93.5312Z" fill="white"/>
<path d="M429.688 93.5312C437.368 93.5312 443.594 87.3052 443.594 79.625C443.594 71.9448 437.368 65.7188 429.688 65.7188C422.007 65.7188 415.781 71.9448 415.781 79.625C415.781 87.3052 422.007 93.5312 429.688 93.5312Z" fill="white"/>
<path d="M457.5 93.5312C465.18 93.5312 471.406 87.3052 471.406 79.625C471.406 71.9448 465.18 65.7188 457.5 65.7188C449.82 65.7188 443.594 71.9448 443.594 79.625C443.594 87.3052 449.82 93.5312 457.5 93.5312Z" fill="white"/>
<path d="M485.312 93.5312C492.993 93.5312 499.219 87.3052 499.219 79.625C499.219 71.9448 492.993 65.7188 485.312 65.7188C477.632 65.7188 471.406 71.9448 471.406 79.625C471.406 87.3052 477.632 93.5312 485.312 93.5312Z" fill="white"/>
<path d="M513.125 93.5312C520.805 93.5312 527.031 87.3052 527.031 79.625C527.031 71.9448 520.805 65.7188 513.125 65.7188C505.445 65.7188 499.219 71.9448 499.219 79.625C499.219 87.3052 505.445 93.5312 513.125 93.5312Z" fill="white"/>
<path d="M540.938 93.5312C548.618 93.5312 554.844 87.3052 554.844 79.625C554.844 71.9448 548.618 65.7188 540.938 65.7188C533.257 65.7188 527.031 71.9448 527.031 79.625C527.031 87.3052 533.257 93.5312 540.938 93.5312Z" fill="white"/>
<path d="M568.75 93.5312C576.43 93.5312 582.656 87.3052 582.656 79.625C582.656 71.9448 576.43 65.7188 568.75 65.7188C561.07 65.7188 554.844 71.9448 554.844 79.625C554.844 87.3052 561.07 93.5312 568.75 93.5312Z" fill="white"/>
<path d="M596.562 93.5312C604.243 93.5312 610.469 87.3052 610.469 79.625C610.469 71.9448 604.243 65.7188 596.562 65.7188C588.882 65.7188 582.656 71.9448 582.656 79.625C582.656 87.3052 588.882 93.5312 596.562 93.5312Z" fill="white"/>
<path d="M624.375 93.5312C632.055 93.5312 638.281 87.3052 638.281 79.625C638.281 71.9448 632.055 65.7188 624.375 65.7188C616.695 65.7188 610.469 71.9448 610.469 79.625C610.469 87.3052 616.695 93.5312 624.375 93.5312Z" fill="white"/>
<path d="M652.188 93.5312C659.868 93.5312 666.094 87.3052 666.094 79.625C666.094 71.9448 659.868 65.7188 652.188 65.7188C644.507 65.7188 638.281 71.9448 638.281 79.625C638.281 87.3052 644.507 93.5312 652.188 93.5312Z" fill="white"/>
<path d="M680 93.5312C687.68 93.5312 693.906 87.3052 693.906 79.625C693.906 71.9448 687.68 65.7188 680 65.7188C672.32 65.7188 666.094 71.9448 666.094 79.625C666.094 87.3052 672.32 93.5312 680 93.5312Z" fill="white"/>
<path d="M707.812 93.5312C715.493 93.5312 721.719 87.3052 721.719 79.625C721.719 71.9448 715.493 65.7188 707.812 65.7188C700.132 65.7188 693.906 71.9448 693.906 79.625C693.906 87.3052 700.132 93.5312 707.812 93.5312Z" fill="white"/>
<path d="M735.625 93.5312C743.305 93.5312 749.531 87.3052 749.531 79.625C749.531 71.9448 743.305 65.7188 735.625 65.7188C727.945 65.7188 721.719 71.9448 721.719 79.625C721.719 87.3052 727.945 93.5312 735.625 93.5312Z" fill="white"/>
<path d="M763.438 93.5312C771.118 93.5312 777.344 87.3052 777.344 79.625C777.344 71.9448 771.118 65.7188 763.438 65.7188C755.757 65.7188 749.531 71.9448 749.531 79.625C749.531 87.3052 755.757 93.5312 763.438 93.5312Z" fill="white"/>
<path d="M791.25 93.5312C798.93 93.5312 805.156 87.3052 805.156 79.625C805.156 71.9448 798.93 65.7188 791.25 65.7188C783.57 65.7188 777.344 71.9448 777.344 79.625C777.344 87.3052 783.57 93.5312 791.25 93.5312Z" fill="white"/>
<path d="M819.062 93.5312C826.743 93.5312 832.969 87.3052 832.969 79.625C832.969 71.9448 826.743 65.7188 819.062 65.7188C811.382 65.7188 805.156 71.9448 805.156 79.625C805.156 87.3052 811.382 93.5312 819.062 93.5312Z" fill="white"/>
<path d="M346.25 121.344C353.93 121.344 360.156 115.118 360.156 107.438C360.156 99.7573 353.93 93.5312 346.25 93.5312C338.57 93.5312 332.344 99.7573 332.344 107.438C332.344 115.118 338.57 121.344 346.25 121.344Z" fill="white"/>
<path d="M374.062 121.344C381.743 121.344 387.969 115.118 387.969 107.438C387.969 99.7573 381.743 93.5312 374.062 93.5312C366.382 93.5312 360.156 99.7573 360.156 107.438C360.156 115.118 366.382 121.344 374.062 121.344Z" fill="white"/>
<path d="M401.875 121.344C409.555 121.344 415.781 115.118 415.781 107.438C415.781 99.7573 409.555 93.5312 401.875 93.5312C394.195 93.5312 387.969 99.7573 387.969 107.438C387.969 115.118 394.195 121.344 401.875 121.344Z" fill="white"/>
<path d="M429.688 121.344C437.368 121.344 443.594 115.118 443.594 107.438C443.594 99.7573 437.368 93.5312 429.688 93.5312C422.007 93.5312 415.781 99.7573 415.781 107.438C415.781 115.118 422.007 121.344 429.688 121.344Z" fill="white"/>
<path d="M457.5 121.344C465.18 121.344 471.406 115.118 471.406 107.438C471.406 99.7573 465.18 93.5312 457.5 93.5312C449.82 93.5312 443.594 99.7573 443.594 107.438C443.594 115.118 449.82 121.344 457.5 121.344Z" fill="white"/>
<path d="M485.312 121.344C492.993 121.344 499.219 115.118 499.219 107.438C499.219 99.7573 492.993 93.5312 485.312 93.5312C477.632 93.5312 471.406 99.7573 471.406 107.438C471.406 115.118 477.632 121.344 485.312 121.344Z" fill="white"/>
<path d="M513.125 121.344C520.805 121.344 527.031 115.118 527.031 107.438C527.031 99.7573 520.805 93.5312 513.125 93.5312C505.445 93.5312 499.219 99.7573 499.219 107.438C499.219 115.118 505.445 121.344 513.125 121.344Z" fill="white"/>
<path d="M540.938 121.344C548.618 121.344 554.844 115.118 554.844 107.438C554.844 99.7573 548.618 93.5312 540.938 93.5312C533.257 93.5312 527.031 99.7573 527.031 107.438C527.031 115.118 533.257 121.344 540.938 121.344Z" fill="white"/>
<path d="M568.75 121.344C576.43 121.344 582.656 115.118 582.656 107.438C582.656 99.7573 576.43 93.5312 568.75 93.5312C561.07 93.5312 554.844 99.7573 554.844 107.438C554.844 115.118 561.07 121.344 568.75 121.344Z" fill="white"/>
<path d="M596.562 121.344C604.243 121.344 610.469 115.118 610.469 107.438C610.469 99.7573 604.243 93.5312 596.562 93.5312C588.882 93.5312 582.656 99.7573 582.656 107.438C582.656 115.118 588.882 121.344 596.562 121.344Z" fill="white"/>
<path d="M624.375 121.344C632.055 121.344 638.281 115.118 638.281 107.438C638.281 99.7573 632.055 93.5312 624.375 93.5312C616.695 93.5312 610.469 99.7573 610.469 107.438C610.469 115.118 616.695 121.344 624.375 121.344Z" fill="white"/>
<path d="M652.188 121.344C659.868 121.344 666.094 115.118 666.094 107.438C666.094 99.7573 659.868 93.5312 652.188 93.5312C644.507 93.5312 638.281 99.7573 638.281 107.438C638.281 115.118 644.507 121.344 652.188 121.344Z" fill="white"/>
<path d="M680 121.344C687.68 121.344 693.906 115.118 693.906 107.438C693.906 99.7573 687.68 93.5312 680 93.5312C672.32 93.5312 666.094 99.7573 666.094 107.438C666.094 115.118 672.32 121.344 680 121.344Z" fill="white"/>
<path d="M707.812 121.344C715.493 121.344 721.719 115.118 721.719 107.438C721.719 99.7573 715.493 93.5312 707.812 93.5312C700.132 93.5312 693.906 99.7573 693.906 107.438C693.906 115.118 700.132 121.344 707.812 121.344Z" fill="white"/>
<path d="M735.625 121.344C743.305 121.344 749.531 115.118 749.531 107.438C749.531 99.7573 743.305 93.5312 735.625 93.5312C727.945 93.5312 721.719 99.7573 721.719 107.438C721.719 115.118 727.945 121.344 735.625 121.344Z" fill="white"/>
<path d="M763.438 121.344C771.118 121.344 777.344 115.118 777.344 107.438C777.344 99.7573 771.118 93.5312 763.438 93.5312C755.757 93.5312 749.531 99.7573 749.531 107.438C749.531 115.118 755.757 121.344 763.438 121.344Z" fill="white"/>
<path d="M791.25 121.344C798.93 121.344 805.156 115.118 805.156 107.438C805.156 99.7573 798.93 93.5312 791.25 93.5312C783.57 93.5312 777.344 99.7573 777.344 107.438C777.344 115.118 783.57 121.344 791.25 121.344Z" fill="white"/>
<path d="M819.062 121.344C826.743 121.344 832.969 115.118 832.969 107.438C832.969 99.7573 826.743 93.5312 819.062 93.5312C811.382 93.5312 805.156 99.7573 805.156 107.438C805.156 115.118 811.382 121.344 819.062 121.344Z" fill="white"/>
<path d="M346.25 149.156C353.93 149.156 360.156 142.93 360.156 135.25C360.156 127.57 353.93 121.344 346.25 121.344C338.57 121.344 332.344 127.57 332.344 135.25C332.344 142.93 338.57 149.156 346.25 149.156Z" fill="white"/>
<path d="M374.062 149.156C381.743 149.156 387.969 142.93 387.969 135.25C387.969 127.57 381.743 121.344 374.062 121.344C366.382 121.344 360.156 127.57 360.156 135.25C360.156 142.93 366.382 149.156 374.062 149.156Z" fill="white"/>
<path d="M401.875 149.156C409.555 149.156 415.781 142.93 415.781 135.25C415.781 127.57 409.555 121.344 401.875 121.344C394.195 121.344 387.969 127.57 387.969 135.25C387.969 142.93 394.195 149.156 401.875 149.156Z" fill="white"/>
<path d="M429.688 149.156C437.368 149.156 443.594 142.93 443.594 135.25C443.594 127.57 437.368 121.344 429.688 121.344C422.007 121.344 415.781 127.57 415.781 135.25C415.781 142.93 422.007 149.156 429.688 149.156Z" fill="white"/>
<path d="M457.5 149.156C465.18 149.156 471.406 142.93 471.406 135.25C471.406 127.57 465.18 121.344 457.5 121.344C449.82 121.344 443.594 127.57 443.594 135.25C443.594 142.93 449.82 149.156 457.5 149.156Z" fill="white"/>
<path d="M485.312 149.156C492.993 149.156 499.219 142.93 499.219 135.25C499.219 127.57 492.993 121.344 485.312 121.344C477.632 121.344 471.406 127.57 471.406 135.25C471.406 142.93 477.632 149.156 485.312 149.156Z" fill="white"/>
<path d="M513.125 149.156C520.805 149.156 527.031 142.93 527.031 135.25C527.031 127.57 520.805 121.344 513.125 121.344C505.445 121.344 499.219 127.57 499.219 135.25C499.219 142.93 505.445 149.156 513.125 149.156Z" fill="white"/>
<path d="M540.938 149.156C548.618 149.156 554.844 142.93 554.844 135.25C554.844 127.57 548.618 121.344 540.938 121.344C533.257 121.344 527.031 127.57 527.031 135.25C527.031 142.93 533.257 149.156 540.938 149.156Z" fill="white"/>
<path d="M568.75 149.156C576.43 149.156 582.656 142.93 582.656 135.25C582.656 127.57 576.43 121.344 568.75 121.344C561.07 121.344 554.844 127.57 554.844 135.25C554.844 142.93 561.07 149.156 568.75 149.156Z" fill="white"/>
<path d="M596.562 149.156C604.243 149.156 610.469 142.93 610.469 135.25C610.469 127.57 604.243 121.344 596.562 121.344C588.882 121.344 582.656 127.57 582.656 135.25C582.656 142.93 588.882 149.156 596.562 149.156Z" fill="white"/>
<path d="M624.375 149.156C632.055 149.156 638.281 142.93 638.281 135.25C638.281 127.57 632.055 121.344 624.375 121.344C616.695 121.344 610.469 127.57 610.469 135.25C610.469 142.93 616.695 149.156 624.375 149.156Z" fill="white"/>
<path d="M652.188 149.156C659.868 149.156 666.094 142.93 666.094 135.25C666.094 127.57 659.868 121.344 652.188 121.344C644.507 121.344 638.281 127.57 638.281 135.25C638.281 142.93 644.507 149.156 652.188 149.156Z" fill="white"/>
<path d="M680 149.156C687.68 149.156 693.906 142.93 693.906 135.25C693.906 127.57 687.68 121.344 680 121.344C672.32 121.344 666.094 127.57 666.094 135.25C666.094 142.93 672.32 149.156 680 149.156Z" fill="white"/>
<path d="M707.812 149.156C715.493 149.156 721.719 142.93 721.719 135.25C721.719 127.57 715.493 121.344 707.812 121.344C700.132 121.344 693.906 127.57 693.906 135.25C693.906 142.93 700.132 149.156 707.812 149.156Z" fill="white"/>
<path d="M735.625 149.156C743.305 149.156 749.531 142.93 749.531 135.25C749.531 127.57 743.305 121.344 735.625 121.344C727.945 121.344 721.719 127.57 721.719 135.25C721.719 142.93 727.945 149.156 735.625 149.156Z" fill="white"/>
<path d="M763.438 149.156C771.118 149.156 777.344 142.93 777.344 135.25C777.344 127.57 771.118 121.344 763.438 121.344C755.757 121.344 749.531 127.57 749.531 135.25C749.531 142.93 755.757 149.156 763.438 149.156Z" fill="white"/>
<path d="M791.25 149.156C798.93 149.156 805.156 142.93 805.156 135.25C805.156 127.57 798.93 121.344 791.25 121.344C783.57 121.344 777.344 127.57 777.344 135.25C777.344 142.93 783.57 149.156 791.25 149.156Z" fill="white"/>
<path d="M346.25 176.969C353.93 176.969 360.156 170.743 360.156 163.062C360.156 155.382 353.93 149.156 346.25 149.156C338.57 149.156 332.344 155.382 332.344 163.062C332.344 170.743 338.57 176.969 346.25 176.969Z" fill="white"/>
<path d="M374.062 176.969C381.743 176.969 387.969 170.743 387.969 163.062C387.969 155.382 381.743 149.156 374.062 149.156C366.382 149.156 360.156 155.382 360.156 163.062C360.156 170.743 366.382 176.969 374.062 176.969Z" fill="white"/>
<path d="M401.875 176.969C409.555 176.969 415.781 170.743 415.781 163.062C415.781 155.382 409.555 149.156 401.875 149.156C394.195 149.156 387.969 155.382 387.969 163.062C387.969 170.743 394.195 176.969 401.875 176.969Z" fill="white"/>
<path d="M429.688 176.969C437.368 176.969 443.594 170.743 443.594 163.062C443.594 155.382 437.368 149.156 429.688 149.156C422.007 149.156 415.781 155.382 415.781 163.062C415.781 170.743 422.007 176.969 429.688 176.969Z" fill="white"/>
<path d="M457.5 176.969C465.18 176.969 471.406 170.743 471.406 163.062C471.406 155.382 465.18 149.156 457.5 149.156C449.82 149.156 443.594 155.382 443.594 163.062C443.594 170.743 449.82 176.969 457.5 176.969Z" fill="white"/>
<path d="M485.312 176.969C492.993 176.969 499.219 170.743 499.219 163.062C499.219 155.382 492.993 149.156 485.312 149.156C477.632 149.156 471.406 155.382 471.406 163.062C471.406 170.743 477.632 176.969 485.312 176.969Z" fill="white"/>
<path d="M513.125 176.969C520.805 176.969 527.031 170.743 527.031 163.062C527.031 155.382 520.805 149.156 513.125 149.156C505.445 149.156 499.219 155.382 499.219 163.062C499.219 170.743 505.445 176.969 513.125 176.969Z" fill="white"/>
<path d="M540.938 176.969C548.618 176.969 554.844 170.743 554.844 163.062C554.844 155.382 548.618 149.156 540.938 149.156C533.257 149.156 527.031 155.382 527.031 163.062C527.031 170.743 533.257 176.969 540.938 176.969Z" fill="white"/>
<path d="M568.75 176.969C576.43 176.969 582.656 170.743 582.656 163.062C582.656 155.382 576.43 149.156 568.75 149.156C561.07 149.156 554.844 155.382 554.844 163.062C554.844 170.743 561.07 176.969 568.75 176.969Z" fill="white"/>
<path d="M596.562 176.969C604.243 176.969 610.469 170.743 610.469 163.062C610.469 155.382 604.243 149.156 596.562 149.156C588.882 149.156 582.656 155.382 582.656 163.062C582.656 170.743 588.882 176.969 596.562 176.969Z" fill="white"/>
<path d="M624.375 176.969C632.055 176.969 638.281 170.743 638.281 163.062C638.281 155.382 632.055 149.156 624.375 149.156C616.695 149.156 610.469 155.382 610.469 163.062C610.469 170.743 616.695 176.969 624.375 176.969Z" fill="white"/>
<path d="M652.188 176.969C659.868 176.969 666.094 170.743 666.094 163.062C666.094 155.382 659.868 149.156 652.188 149.156C644.507 149.156 638.281 155.382 638.281 163.062C638.281 170.743 644.507 176.969 652.188 176.969Z" fill="white"/>
<path d="M680 176.969C687.68 176.969 693.906 170.743 693.906 163.062C693.906 155.382 687.68 149.156 680 149.156C672.32 149.156 666.094 155.382 666.094 163.062C666.094 170.743 672.32 176.969 680 176.969Z" fill="white"/>
<path d="M707.812 176.969C715.493 176.969 721.719 170.743 721.719 163.062C721.719 155.382 715.493 149.156 707.812 149.156C700.132 149.156 693.906 155.382 693.906 163.062C693.906 170.743 700.132 176.969 707.812 176.969Z" fill="white"/>
<path d="M735.625 176.969C743.305 176.969 749.531 170.743 749.531 163.062C749.531 155.382 743.305 149.156 735.625 149.156C727.945 149.156 721.719 155.382 721.719 163.062C721.719 170.743 727.945 176.969 735.625 176.969Z" fill="white"/>
<path d="M374.062 204.781C381.743 204.781 387.969 198.555 387.969 190.875C387.969 183.195 381.743 176.969 374.062 176.969C366.382 176.969 360.156 183.195 360.156 190.875C360.156 198.555 366.382 204.781 374.062 204.781Z" fill="white"/>
<path d="M401.875 204.781C409.555 204.781 415.781 198.555 415.781 190.875C415.781 183.195 409.555 176.969 401.875 176.969C394.195 176.969 387.969 183.195 387.969 190.875C387.969 198.555 394.195 204.781 401.875 204.781Z" fill="white"/>
<path d="M429.688 204.781C437.368 204.781 443.594 198.555 443.594 190.875C443.594 183.195 437.368 176.969 429.688 176.969C422.007 176.969 415.781 183.195 415.781 190.875C415.781 198.555 422.007 204.781 429.688 204.781Z" fill="white"/>
<path d="M457.5 204.781C465.18 204.781 471.406 198.555 471.406 190.875C471.406 183.195 465.18 176.969 457.5 176.969C449.82 176.969 443.594 183.195 443.594 190.875C443.594 198.555 449.82 204.781 457.5 204.781Z" fill="white"/>
<path d="M485.312 204.781C492.993 204.781 499.219 198.555 499.219 190.875C499.219 183.195 492.993 176.969 485.312 176.969C477.632 176.969 471.406 183.195 471.406 190.875C471.406 198.555 477.632 204.781 485.312 204.781Z" fill="white"/>
<path d="M513.125 204.781C520.805 204.781 527.031 198.555 527.031 190.875C527.031 183.195 520.805 176.969 513.125 176.969C505.445 176.969 499.219 183.195 499.219 190.875C499.219 198.555 505.445 204.781 513.125 204.781Z" fill="white"/>
<path d="M540.938 204.781C548.618 204.781 554.844 198.555 554.844 190.875C554.844 183.195 548.618 176.969 540.938 176.969C533.257 176.969 527.031 183.195 527.031 190.875C527.031 198.555 533.257 204.781 540.938 204.781Z" fill="white"/>
<path d="M568.75 204.781C576.43 204.781 582.656 198.555 582.656 190.875C582.656 183.195 576.43 176.969 568.75 176.969C561.07 176.969 554.844 183.195 554.844 190.875C554.844 198.555 561.07 204.781 568.75 204.781Z" fill="white"/>
<path d="M596.562 204.781C604.243 204.781 610.469 198.555 610.469 190.875C610.469 183.195 604.243 176.969 596.562 176.969C588.882 176.969 582.656 183.195 582.656 190.875C582.656 198.555 588.882 204.781 596.562 204.781Z" fill="white"/>
<path d="M624.375 204.781C632.055 204.781 638.281 198.555 638.281 190.875C638.281 183.195 632.055 176.969 624.375 176.969C616.695 176.969 610.469 183.195 610.469 190.875C610.469 198.555 616.695 204.781 624.375 204.781Z" fill="white"/>
<path d="M652.188 204.781C659.868 204.781 666.094 198.555 666.094 190.875C666.094 183.195 659.868 176.969 652.188 176.969C644.507 176.969 638.281 183.195 638.281 190.875C638.281 198.555 644.507 204.781 652.188 204.781Z" fill="white"/>
<path d="M680 204.781C687.68 204.781 693.906 198.555 693.906 190.875C693.906 183.195 687.68 176.969 680 176.969C672.32 176.969 666.094 183.195 666.094 190.875C666.094 198.555 672.32 204.781 680 204.781Z" fill="white"/>
<path d="M707.812 204.781C715.493 204.781 721.719 198.555 721.719 190.875C721.719 183.195 715.493 176.969 707.812 176.969C700.132 176.969 693.906 183.195 693.906 190.875C693.906 198.555 700.132 204.781 707.812 204.781Z" fill="white"/>
<path d="M401.875 232.594C409.555 232.594 415.781 226.368 415.781 218.688C415.781 211.007 409.555 204.781 401.875 204.781C394.195 204.781 387.969 211.007 387.969 218.688C387.969 226.368 394.195 232.594 401.875 232.594Z" fill="white"/>
<path d="M429.688 232.594C437.368 232.594 443.594 226.368 443.594 218.688C443.594 211.007 437.368 204.781 429.688 204.781C422.007 204.781 415.781 211.007 415.781 218.688C415.781 226.368 422.007 232.594 429.688 232.594Z" fill="white"/>
<path d="M457.5 232.594C465.18 232.594 471.406 226.368 471.406 218.688C471.406 211.007 465.18 204.781 457.5 204.781C449.82 204.781 443.594 211.007 443.594 218.688C443.594 226.368 449.82 232.594 457.5 232.594Z" fill="white"/>
<path d="M485.312 232.594C492.993 232.594 499.219 226.368 499.219 218.688C499.219 211.007 492.993 204.781 485.312 204.781C477.632 204.781 471.406 211.007 471.406 218.688C471.406 226.368 477.632 232.594 485.312 232.594Z" fill="white"/>
<path d="M513.125 232.594C520.805 232.594 527.031 226.368 527.031 218.688C527.031 211.007 520.805 204.781 513.125 204.781C505.445 204.781 499.219 211.007 499.219 218.688C499.219 226.368 505.445 232.594 513.125 232.594Z" fill="white"/>
<path d="M540.938 232.594C548.618 232.594 554.844 226.368 554.844 218.688C554.844 211.007 548.618 204.781 540.938 204.781C533.257 204.781 527.031 211.007 527.031 218.688C527.031 226.368 533.257 232.594 540.938 232.594Z" fill="white"/>
<path d="M568.75 232.594C576.43 232.594 582.656 226.368 582.656 218.688C582.656 211.007 576.43 204.781 568.75 204.781C561.07 204.781 554.844 211.007 554.844 218.688C554.844 226.368 561.07 232.594 568.75 232.594Z" fill="white"/>
<path d="M596.562 232.594C604.243 232.594 610.469 226.368 610.469 218.688C610.469 211.007 604.243 204.781 596.562 204.781C588.882 204.781 582.656 211.007 582.656 218.688C582.656 226.368 588.882 232.594 596.562 232.594Z" fill="white"/>
<path d="M624.375 232.594C632.055 232.594 638.281 226.368 638.281 218.688C638.281 211.007 632.055 204.781 624.375 204.781C616.695 204.781 610.469 211.007 610.469 218.688C610.469 226.368 616.695 232.594 624.375 232.594Z" fill="white"/>
<path d="M652.188 232.594C659.868 232.594 666.094 226.368 666.094 218.688C666.094 211.007 659.868 204.781 652.188 204.781C644.507 204.781 638.281 211.007 638.281 218.688C638.281 226.368 644.507 232.594 652.188 232.594Z" fill="white"/>
<path d="M680 232.594C687.68 232.594 693.906 226.368 693.906 218.688C693.906 211.007 687.68 204.781 680 204.781C672.32 204.781 666.094 211.007 666.094 218.688C666.094 226.368 672.32 232.594 680 232.594Z" fill="white"/>
<path d="M401.875 260.406C409.555 260.406 415.781 254.18 415.781 246.5C415.781 238.82 409.555 232.594 401.875 232.594C394.195 232.594 387.969 238.82 387.969 246.5C387.969 254.18 394.195 260.406 401.875 260.406Z" fill="white"/>
<path d="M429.688 260.406C437.368 260.406 443.594 254.18 443.594 246.5C443.594 238.82 437.368 232.594 429.688 232.594C422.007 232.594 415.781 238.82 415.781 246.5C415.781 254.18 422.007 260.406 429.688 260.406Z" fill="white"/>
<path d="M457.5 260.406C465.18 260.406 471.406 254.18 471.406 246.5C471.406 238.82 465.18 232.594 457.5 232.594C449.82 232.594 443.594 238.82 443.594 246.5C443.594 254.18 449.82 260.406 457.5 260.406Z" fill="white"/>
<path d="M485.312 260.406C492.993 260.406 499.219 254.18 499.219 246.5C499.219 238.82 492.993 232.594 485.312 232.594C477.632 232.594 471.406 238.82 471.406 246.5C471.406 254.18 477.632 260.406 485.312 260.406Z" fill="white"/>
<path d="M513.125 260.406C520.805 260.406 527.031 254.18 527.031 246.5C527.031 238.82 520.805 232.594 513.125 232.594C505.445 232.594 499.219 238.82 499.219 246.5C499.219 254.18 505.445 260.406 513.125 260.406Z" fill="white"/>
<path d="M540.938 260.406C548.618 260.406 554.844 254.18 554.844 246.5C554.844 238.82 548.618 232.594 540.938 232.594C533.257 232.594 527.031 238.82 527.031 246.5C527.031 254.18 533.257 260.406 540.938 260.406Z" fill="white"/>
<path d="M568.75 260.406C576.43 260.406 582.656 254.18 582.656 246.5C582.656 238.82 576.43 232.594 568.75 232.594C561.07 232.594 554.844 238.82 554.844 246.5C554.844 254.18 561.07 260.406 568.75 260.406Z" fill="white"/>
<path d="M596.562 260.406C604.243 260.406 610.469 254.18 610.469 246.5C610.469 238.82 604.243 232.594 596.562 232.594C588.882 232.594 582.656 238.82 582.656 246.5C582.656 254.18 588.882 260.406 596.562 260.406Z" fill="white"/>
<path d="M624.375 260.406C632.055 260.406 638.281 254.18 638.281 246.5C638.281 238.82 632.055 232.594 624.375 232.594C616.695 232.594 610.469 238.82 610.469 246.5C610.469 254.18 616.695 260.406 624.375 260.406Z" fill="white"/>
<path d="M652.188 260.406C659.868 260.406 666.094 254.18 666.094 246.5C666.094 238.82 659.868 232.594 652.188 232.594C644.507 232.594 638.281 238.82 638.281 246.5C638.281 254.18 644.507 260.406 652.188 260.406Z" fill="white"/>
<path d="M429.688 288.219C437.368 288.219 443.594 281.993 443.594 274.312C443.594 266.632 437.368 260.406 429.688 260.406C422.007 260.406 415.781 266.632 415.781 274.312C415.781 281.993 422.007 288.219 429.688 288.219Z" fill="white"/>
<path d="M457.5 288.219C465.18 288.219 471.406 281.993 471.406 274.312C471.406 266.632 465.18 260.406 457.5 260.406C449.82 260.406 443.594 266.632 443.594 274.312C443.594 281.993 449.82 288.219 457.5 288.219Z" fill="white"/>
<path d="M485.312 288.219C492.993 288.219 499.219 281.993 499.219 274.312C499.219 266.632 492.993 260.406 485.312 260.406C477.632 260.406 471.406 266.632 471.406 274.312C471.406 281.993 477.632 288.219 485.312 288.219Z" fill="white"/>
<path d="M513.125 288.219C520.805 288.219 527.031 281.993 527.031 274.312C527.031 266.632 520.805 260.406 513.125 260.406C505.445 260.406 499.219 266.632 499.219 274.312C499.219 281.993 505.445 288.219 513.125 288.219Z" fill="white"/>
<path d="M540.938 288.219C548.618 288.219 554.844 281.993 554.844 274.312C554.844 266.632 548.618 260.406 540.938 260.406C533.257 260.406 527.031 266.632 527.031 274.312C527.031 281.993 533.257 288.219 540.938 288.219Z" fill="white"/>
<path d="M652.188 288.219C659.868 288.219 666.094 281.993 666.094 274.312C666.094 266.632 659.868 260.406 652.188 260.406C644.507 260.406 638.281 266.632 638.281 274.312C638.281 281.993 644.507 288.219 652.188 288.219Z" fill="white"/>
<path d="M429.688 316.031C437.368 316.031 443.594 309.805 443.594 302.125C443.594 294.445 437.368 288.219 429.688 288.219C422.007 288.219 415.781 294.445 415.781 302.125C415.781 309.805 422.007 316.031 429.688 316.031Z" fill="white"/>
<path d="M485.312 316.031C492.993 316.031 499.219 309.805 499.219 302.125C499.219 294.445 492.993 288.219 485.312 288.219C477.632 288.219 471.406 294.445 471.406 302.125C471.406 309.805 477.632 316.031 485.312 316.031Z" fill="white"/>
<path d="M513.125 316.031C520.805 316.031 527.031 309.805 527.031 302.125C527.031 294.445 520.805 288.219 513.125 288.219C505.445 288.219 499.219 294.445 499.219 302.125C499.219 309.805 505.445 316.031 513.125 316.031Z" fill="white"/>
<path d="M513.125 343.844C520.805 343.844 527.031 337.618 527.031 329.938C527.031 322.257 520.805 316.031 513.125 316.031C505.445 316.031 499.219 322.257 499.219 329.938C499.219 337.618 505.445 343.844 513.125 343.844Z" fill="white"/>
<path d="M540.938 343.844C548.618 343.844 554.844 337.618 554.844 329.938C554.844 322.257 548.618 316.031 540.938 316.031C533.257 316.031 527.031 322.257 527.031 329.938C527.031 337.618 533.257 343.844 540.938 343.844Z" fill="white"/>
<path d="M596.562 343.844C604.243 343.844 610.469 337.618 610.469 329.938C610.469 322.257 604.243 316.031 596.562 316.031C588.882 316.031 582.656 322.257 582.656 329.938C582.656 337.618 588.882 343.844 596.562 343.844Z" fill="white"/>
<path d="M680 343.844C687.68 343.844 693.906 337.618 693.906 329.938C693.906 322.257 687.68 316.031 680 316.031C672.32 316.031 666.094 322.257 666.094 329.938C666.094 337.618 672.32 343.844 680 343.844Z" fill="white"/>
<path d="M513.125 371.656C520.805 371.656 527.031 365.43 527.031 357.75C527.031 350.07 520.805 343.844 513.125 343.844C505.445 343.844 499.219 350.07 499.219 357.75C499.219 365.43 505.445 371.656 513.125 371.656Z" fill="white"/>
<path d="M540.938 371.656C548.618 371.656 554.844 365.43 554.844 357.75C554.844 350.07 548.618 343.844 540.938 343.844C533.257 343.844 527.031 350.07 527.031 357.75C527.031 365.43 533.257 371.656 540.938 371.656Z" fill="white"/>
<path d="M568.75 371.656C576.43 371.656 582.656 365.43 582.656 357.75C582.656 350.07 576.43 343.844 568.75 343.844C561.07 343.844 554.844 350.07 554.844 357.75C554.844 365.43 561.07 371.656 568.75 371.656Z" fill="white"/>
<path d="M596.562 371.656C604.243 371.656 610.469 365.43 610.469 357.75C610.469 350.07 604.243 343.844 596.562 343.844C588.882 343.844 582.656 350.07 582.656 357.75C582.656 365.43 588.882 371.656 596.562 371.656Z" fill="white"/>
<path d="M707.812 371.656C715.493 371.656 721.719 365.43 721.719 357.75C721.719 350.07 715.493 343.844 707.812 343.844C700.132 343.844 693.906 350.07 693.906 357.75C693.906 365.43 700.132 371.656 707.812 371.656Z" fill="white"/>
<path d="M596.562 399.469C604.243 399.469 610.469 393.243 610.469 385.562C610.469 377.882 604.243 371.656 596.562 371.656C588.882 371.656 582.656 377.882 582.656 385.562C582.656 393.243 588.882 399.469 596.562 399.469Z" fill="white"/>
<path d="M624.375 399.469C632.055 399.469 638.281 393.243 638.281 385.562C638.281 377.882 632.055 371.656 624.375 371.656C616.695 371.656 610.469 377.882 610.469 385.562C610.469 393.243 616.695 399.469 624.375 399.469Z" fill="white"/>
<path d="M652.188 399.469C659.868 399.469 666.094 393.243 666.094 385.562C666.094 377.882 659.868 371.656 652.188 371.656C644.507 371.656 638.281 377.882 638.281 385.562C638.281 393.243 644.507 399.469 652.188 399.469Z" fill="white"/>
<path d="M624.375 427.281C632.055 427.281 638.281 421.055 638.281 413.375C638.281 405.695 632.055 399.469 624.375 399.469C616.695 399.469 610.469 405.695 610.469 413.375C610.469 421.055 616.695 427.281 624.375 427.281Z" fill="white"/>
<path d="M652.188 427.281C659.868 427.281 666.094 421.055 666.094 413.375C666.094 405.695 659.868 399.469 652.188 399.469C644.507 399.469 638.281 405.695 638.281 413.375C638.281 421.055 644.507 427.281 652.188 427.281Z" fill="white"/>
<path d="M707.812 427.281C715.493 427.281 721.719 421.055 721.719 413.375C721.719 405.695 715.493 399.469 707.812 399.469C700.132 399.469 693.906 405.695 693.906 413.375C693.906 421.055 700.132 427.281 707.812 427.281Z" fill="white"/>
<path d="M735.625 427.281C743.305 427.281 749.531 421.055 749.531 413.375C749.531 405.695 743.305 399.469 735.625 399.469C727.945 399.469 721.719 405.695 721.719 413.375C721.719 421.055 727.945 427.281 735.625 427.281Z" fill="white"/>
<path d="M763.438 427.281C771.118 427.281 777.344 421.055 777.344 413.375C777.344 405.695 771.118 399.469 763.438 399.469C755.757 399.469 749.531 405.695 749.531 413.375C749.531 421.055 755.757 427.281 763.438 427.281Z" fill="white"/>
<path d="M791.25 427.281C798.93 427.281 805.156 421.055 805.156 413.375C805.156 405.695 798.93 399.469 791.25 399.469C783.57 399.469 777.344 405.695 777.344 413.375C777.344 421.055 783.57 427.281 791.25 427.281Z" fill="white"/>
<path d="M707.812 455.094C715.493 455.094 721.719 448.868 721.719 441.188C721.719 433.507 715.493 427.281 707.812 427.281C700.132 427.281 693.906 433.507 693.906 441.188C693.906 448.868 700.132 455.094 707.812 455.094Z" fill="white"/>
<path d="M735.625 455.094C743.305 455.094 749.531 448.868 749.531 441.188C749.531 433.507 743.305 427.281 735.625 427.281C727.945 427.281 721.719 433.507 721.719 441.188C721.719 448.868 727.945 455.094 735.625 455.094Z" fill="white"/>
<path d="M763.438 455.094C771.118 455.094 777.344 448.868 777.344 441.188C777.344 433.507 771.118 427.281 763.438 427.281C755.757 427.281 749.531 433.507 749.531 441.188C749.531 448.868 755.757 455.094 763.438 455.094Z" fill="white"/>
<path d="M791.25 455.094C798.93 455.094 805.156 448.868 805.156 441.188C805.156 433.507 798.93 427.281 791.25 427.281C783.57 427.281 777.344 433.507 777.344 441.188C777.344 448.868 783.57 455.094 791.25 455.094Z" fill="white"/>
<path d="M819.062 455.094C826.743 455.094 832.969 448.868 832.969 441.188C832.969 433.507 826.743 427.281 819.062 427.281C811.382 427.281 805.156 433.507 805.156 441.188C805.156 448.868 811.382 455.094 819.062 455.094Z" fill="white"/>
<path d="M707.812 482.906C715.493 482.906 721.719 476.68 721.719 469C721.719 461.32 715.493 455.094 707.812 455.094C700.132 455.094 693.906 461.32 693.906 469C693.906 476.68 700.132 482.906 707.812 482.906Z" fill="white"/>
<path d="M735.625 482.906C743.305 482.906 749.531 476.68 749.531 469C749.531 461.32 743.305 455.094 735.625 455.094C727.945 455.094 721.719 461.32 721.719 469C721.719 476.68 727.945 482.906 735.625 482.906Z" fill="white"/>
<path d="M763.438 482.906C771.118 482.906 777.344 476.68 777.344 469C777.344 461.32 771.118 455.094 763.438 455.094C755.757 455.094 749.531 461.32 749.531 469C749.531 476.68 755.757 482.906 763.438 482.906Z" fill="white"/>
<path d="M791.25 482.906C798.93 482.906 805.156 476.68 805.156 469C805.156 461.32 798.93 455.094 791.25 455.094C783.57 455.094 777.344 461.32 777.344 469C777.344 476.68 783.57 482.906 791.25 482.906Z" fill="white"/>
<path d="M819.062 482.906C826.743 482.906 832.969 476.68 832.969 469C832.969 461.32 826.743 455.094 819.062 455.094C811.382 455.094 805.156 461.32 805.156 469C805.156 476.68 811.382 482.906 819.062 482.906Z" fill="white"/>
<path d="M846.875 482.906C854.555 482.906 860.781 476.68 860.781 469C860.781 461.32 854.555 455.094 846.875 455.094C839.195 455.094 832.969 461.32 832.969 469C832.969 476.68 839.195 482.906 846.875 482.906Z" fill="white"/>
<path d="M680 510.719C687.68 510.719 693.906 504.493 693.906 496.812C693.906 489.132 687.68 482.906 680 482.906C672.32 482.906 666.094 489.132 666.094 496.812C666.094 504.493 672.32 510.719 680 510.719Z" fill="white"/>
<path d="M707.812 510.719C715.493 510.719 721.719 504.493 721.719 496.812C721.719 489.132 715.493 482.906 707.812 482.906C700.132 482.906 693.906 489.132 693.906 496.812C693.906 504.493 700.132 510.719 707.812 510.719Z" fill="white"/>
<path d="M735.625 510.719C743.305 510.719 749.531 504.493 749.531 496.812C749.531 489.132 743.305 482.906 735.625 482.906C727.945 482.906 721.719 489.132 721.719 496.812C721.719 504.493 727.945 510.719 735.625 510.719Z" fill="white"/>
<path d="M763.438 510.719C771.118 510.719 777.344 504.493 777.344 496.812C777.344 489.132 771.118 482.906 763.438 482.906C755.757 482.906 749.531 489.132 749.531 496.812C749.531 504.493 755.757 510.719 763.438 510.719Z" fill="white"/>
<path d="M791.25 510.719C798.93 510.719 805.156 504.493 805.156 496.812C805.156 489.132 798.93 482.906 791.25 482.906C783.57 482.906 777.344 489.132 777.344 496.812C777.344 504.493 783.57 510.719 791.25 510.719Z" fill="white"/>
<path d="M819.062 510.719C826.743 510.719 832.969 504.493 832.969 496.812C832.969 489.132 826.743 482.906 819.062 482.906C811.382 482.906 805.156 489.132 805.156 496.812C805.156 504.493 811.382 510.719 819.062 510.719Z" fill="white"/>
<path d="M846.875 510.719C854.555 510.719 860.781 504.493 860.781 496.812C860.781 489.132 854.555 482.906 846.875 482.906C839.195 482.906 832.969 489.132 832.969 496.812C832.969 504.493 839.195 510.719 846.875 510.719Z" fill="white"/>
<path d="M680 538.531C687.68 538.531 693.906 532.305 693.906 524.625C693.906 516.945 687.68 510.719 680 510.719C672.32 510.719 666.094 516.945 666.094 524.625C666.094 532.305 672.32 538.531 680 538.531Z" fill="white"/>
<path d="M707.812 538.531C715.493 538.531 721.719 532.305 721.719 524.625C721.719 516.945 715.493 510.719 707.812 510.719C700.132 510.719 693.906 516.945 693.906 524.625C693.906 532.305 700.132 538.531 707.812 538.531Z" fill="white"/>
<path d="M735.625 538.531C743.305 538.531 749.531 532.305 749.531 524.625C749.531 516.945 743.305 510.719 735.625 510.719C727.945 510.719 721.719 516.945 721.719 524.625C721.719 532.305 727.945 538.531 735.625 538.531Z" fill="white"/>
<path d="M763.438 538.531C771.118 538.531 777.344 532.305 777.344 524.625C777.344 516.945 771.118 510.719 763.438 510.719C755.757 510.719 749.531 516.945 749.531 524.625C749.531 532.305 755.757 538.531 763.438 538.531Z" fill="white"/>
<path d="M791.25 538.531C798.93 538.531 805.156 532.305 805.156 524.625C805.156 516.945 798.93 510.719 791.25 510.719C783.57 510.719 777.344 516.945 777.344 524.625C777.344 532.305 783.57 538.531 791.25 538.531Z" fill="white"/>
<path d="M819.062 538.531C826.743 538.531 832.969 532.305 832.969 524.625C832.969 516.945 826.743 510.719 819.062 510.719C811.382 510.719 805.156 516.945 805.156 524.625C805.156 532.305 811.382 538.531 819.062 538.531Z" fill="white"/>
<path d="M846.875 538.531C854.555 538.531 860.781 532.305 860.781 524.625C860.781 516.945 854.555 510.719 846.875 510.719C839.195 510.719 832.969 516.945 832.969 524.625C832.969 532.305 839.195 538.531 846.875 538.531Z" fill="white"/>
<path d="M680 566.344C687.68 566.344 693.906 560.118 693.906 552.438C693.906 544.757 687.68 538.531 680 538.531C672.32 538.531 666.094 544.757 666.094 552.438C666.094 560.118 672.32 566.344 680 566.344Z" fill="white"/>
<path d="M707.812 566.344C715.493 566.344 721.719 560.118 721.719 552.438C721.719 544.757 715.493 538.531 707.812 538.531C700.132 538.531 693.906 544.757 693.906 552.438C693.906 560.118 700.132 566.344 707.812 566.344Z" fill="white"/>
<path d="M735.625 566.344C743.305 566.344 749.531 560.118 749.531 552.438C749.531 544.757 743.305 538.531 735.625 538.531C727.945 538.531 721.719 544.757 721.719 552.438C721.719 560.118 727.945 566.344 735.625 566.344Z" fill="white"/>
<path d="M763.438 566.344C771.118 566.344 777.344 560.118 777.344 552.438C777.344 544.757 771.118 538.531 763.438 538.531C755.757 538.531 749.531 544.757 749.531 552.438C749.531 560.118 755.757 566.344 763.438 566.344Z" fill="white"/>
<path d="M791.25 566.344C798.93 566.344 805.156 560.118 805.156 552.438C805.156 544.757 798.93 538.531 791.25 538.531C783.57 538.531 777.344 544.757 777.344 552.438C777.344 560.118 783.57 566.344 791.25 566.344Z" fill="white"/>
<path d="M819.062 566.344C826.743 566.344 832.969 560.118 832.969 552.438C832.969 544.757 826.743 538.531 819.062 538.531C811.382 538.531 805.156 544.757 805.156 552.438C805.156 560.118 811.382 566.344 819.062 566.344Z" fill="white"/>
<path d="M846.875 566.344C854.555 566.344 860.781 560.118 860.781 552.438C860.781 544.757 854.555 538.531 846.875 538.531C839.195 538.531 832.969 544.757 832.969 552.438C832.969 560.118 839.195 566.344 846.875 566.344Z" fill="white"/>
</g>
<defs>
<clipPath id="clip0_21_4">
<rect width="856" height="539.8" fill="white"/>
</clipPath>
</defs>
</svg>
